<?xml version="1.0" encoding="UTF-8" standalone="no"?>
<!DOCTYPE svg PUBLIC "-//W3C//DTD SVG 1.1//EN"
 "http://www.w3.org/Graphics/SVG/1.1/DTD/svg11.dtd">
<!-- Generated by graphviz version 2.38.0 (20140413.2041)
 -->
<!-- Title: Control&#45;flow graph for function &#39;magic()&#39;. Pages: 1 -->
<svg width="319pt" height="261pt"
 viewBox="0.00 0.00 319.00 261.00" xmlns="http://www.w3.org/2000/svg" xmlns:xlink="http://www.w3.org/1999/xlink">
<g id="graph0" class="graph" transform="scale(1 1) rotate(0) translate(4 257)">
<title>Control&#45;flow graph for function &#39;magic()&#39;.</title>
<polygon fill="white" stroke="none" points="-4,4 -4,-257 315,-257 315,4 -4,4"/>
<text text-anchor="middle" x="155.5" y="-7.8" font-family="Times,serif" font-size="14.00">Control&#45;flow graph for function &#39;magic()&#39;.</text>
<!-- Node0x2ed2410 -->
<g id="node1" class="node"><title>Node0x2ed2410</title>
<polygon fill="none" stroke="black" points="126,-216.5 126,-252.5 185,-252.5 185,-216.5 126,-216.5"/>
<text text-anchor="start" x="134" y="-230.8" font-family="Times,serif" font-size="14.00">entry:</text>
</g>
<!-- Node0x2eef1e0 -->
<g id="node2" class="node"><title>Node0x2eef1e0</title>
<polygon fill="none" stroke="black" points="55.5,-96.5 55.5,-179.5 255.5,-179.5 255.5,-96.5 55.5,-96.5"/>
<text text-anchor="start" x="63.5" y="-164.3" font-family="Times,serif" font-size="14.00">0x2eecaa0:</text>
<text text-anchor="start" x="63.5" y="-149.3" font-family="Times,serif" font-size="14.00"> str</text>
<text text-anchor="start" x="63.5" y="-134.3" font-family="Times,serif" font-size="14.00"> scanf(&quot;%s&quot;, str)</text>
<text text-anchor="start" x="63.5" y="-119.3" font-family="Times,serif" font-size="14.00"> do_magic(str, strlen(str))</text>
<text text-anchor="start" x="63.5" y="-104.3" font-family="Times,serif" font-size="14.00"> return printf(&quot;%s&quot;, str)</text>
</g>
<!-- Node0x2ed2410&#45;&gt;Node0x2eef1e0 -->
<g id="edge1" class="edge"><title>Node0x2ed2410&#45;&gt;Node0x2eef1e0</title>
<path fill="none" stroke="black" d="M155.5,-216.167C155.5,-208.654 155.5,-199.427 155.5,-189.999"/>
<polygon fill="black" stroke="black" points="159,-189.762 155.5,-179.762 152,-189.762 159,-189.762"/>
</g>
<!-- Node0x2ee5860 -->
<g id="node3" class="node"><title>Node0x2ee5860</title>
<polygon fill="none" stroke="black" points="128.5,-23.5 128.5,-59.5 182.5,-59.5 182.5,-23.5 128.5,-23.5"/>
<text text-anchor="start" x="136.5" y="-37.8" font-family="Times,serif" font-size="14.00">exit:</text>
</g>
<!-- Node0x2eef1e0&#45;&gt;Node0x2ee5860 -->
<g id="edge2" class="edge"><title>Node0x2eef1e0&#45;&gt;Node0x2ee5860</title>
<path fill="none" stroke="black" d="M155.5,-96.3751C155.5,-87.4706 155.5,-78.246 155.5,-70"/>
<polygon fill="black" stroke="black" points="159,-69.8327 155.5,-59.8328 152,-69.8328 159,-69.8327"/>
</g>
</g>
</svg>
