<?xml version="1.0" encoding="UTF-8" standalone="no"?>
<!DOCTYPE svg PUBLIC "-//W3C//DTD SVG 1.1//EN"
 "http://www.w3.org/Graphics/SVG/1.1/DTD/svg11.dtd">
<!-- Generated by graphviz version 2.38.0 (20140413.2041)
 -->
<!-- Title: Control&#45;flow graph for function &#39;do_magic(*a1, result)&#39;. Pages: 1 -->
<svg width="741pt" height="695pt"
 viewBox="0.00 0.00 741.00 695.00" xmlns="http://www.w3.org/2000/svg" xmlns:xlink="http://www.w3.org/1999/xlink">
<g id="graph0" class="graph" transform="scale(1 1) rotate(0) translate(4 691)">
<title>Control&#45;flow graph for function &#39;do_magic(*a1, result)&#39;.</title>
<polygon fill="white" stroke="none" points="-4,4 -4,-691 737,-691 737,4 -4,4"/>
<text text-anchor="middle" x="366.5" y="-7.8" font-family="Times,serif" font-size="14.00">Control&#45;flow graph for function &#39;do_magic(*a1, result)&#39;.</text>
<!-- Node0x2f0ac50 -->
<g id="node1" class="node"><title>Node0x2f0ac50</title>
<polygon fill="none" stroke="black" points="154,-633.5 154,-686.5 217,-686.5 217,-633.5 154,-633.5"/>
<text text-anchor="start" x="162" y="-671.3" font-family="Times,serif" font-size="14.00">entry:</text>
<text text-anchor="start" x="162" y="-656.3" font-family="Times,serif" font-size="14.00"> a1</text>
<text text-anchor="start" x="162" y="-641.3" font-family="Times,serif" font-size="14.00"> result</text>
</g>
<!-- Node0x2ef33d0 -->
<g id="node2" class="node"><title>Node0x2ef33d0</title>
<polygon fill="none" stroke="black" points="106.5,-557.5 106.5,-595.5 264.5,-595.5 264.5,-557.5 106.5,-557.5"/>
<text text-anchor="start" x="114.5" y="-580.3" font-family="Times,serif" font-size="14.00">0x2eac570:</text>
<text text-anchor="start" x="114.5" y="-565.3" font-family="Times,serif" font-size="14.00"> srand(time(NULL))</text>
</g>
<!-- Node0x2f0ac50&#45;&gt;Node0x2ef33d0 -->
<g id="edge1" class="edge"><title>Node0x2f0ac50&#45;&gt;Node0x2ef33d0</title>
<path fill="none" stroke="black" d="M185.5,-633.213C185.5,-624.526 185.5,-614.787 185.5,-605.91"/>
<polygon fill="black" stroke="black" points="189,-605.638 185.5,-595.638 182,-605.638 189,-605.638"/>
</g>
<!-- Node0x2ee7f10 -->
<g id="node3" class="node"><title>Node0x2ee7f10</title>
<polygon fill="none" stroke="black" points="118.5,-481.5 118.5,-519.5 252.5,-519.5 252.5,-481.5 118.5,-481.5"/>
<text text-anchor="start" x="126.5" y="-504.3" font-family="Times,serif" font-size="14.00">0x2eb0120:</text>
<text text-anchor="start" x="126.5" y="-489.3" font-family="Times,serif" font-size="14.00"> if (result &lt;= 0):</text>
</g>
<!-- Node0x2ef33d0&#45;&gt;Node0x2ee7f10 -->
<g id="edge2" class="edge"><title>Node0x2ef33d0&#45;&gt;Node0x2ee7f10</title>
<path fill="none" stroke="black" d="M185.5,-557.208C185.5,-548.964 185.5,-539.038 185.5,-529.862"/>
<polygon fill="black" stroke="black" points="189,-529.582 185.5,-519.582 182,-529.582 189,-529.582"/>
</g>
<!-- Node0x2ecc740 -->
<g id="node4" class="node"><title>Node0x2ecc740</title>
<polygon fill="none" stroke="black" points="0,-289.5 0,-327.5 101,-327.5 101,-289.5 0,-289.5"/>
<text text-anchor="start" x="8" y="-312.3" font-family="Times,serif" font-size="14.00">0x2eb0430:</text>
<text text-anchor="start" x="8" y="-297.3" font-family="Times,serif" font-size="14.00"> return 0</text>
</g>
<!-- Node0x2ee7f10&#45;&gt;Node0x2ecc740 -->
<g id="edge3" class="edge"><title>Node0x2ee7f10&#45;&gt;Node0x2ecc740</title>
<path fill="none" stroke="black" d="M172.556,-481.282C148.566,-447.519 97.1164,-375.108 69.291,-335.947"/>
<polygon fill="black" stroke="black" points="72.0504,-333.787 63.4052,-327.663 66.3442,-337.842 72.0504,-333.787"/>
<text text-anchor="middle" x="202" y="-451.8" font-family="Times,serif" font-size="14.00">result &lt;= 0</text>
</g>
<!-- Node0x2eb6730 -->
<g id="node5" class="node"><title>Node0x2eb6730</title>
<polygon fill="none" stroke="black" points="185,-346.5 185,-429.5 712,-429.5 712,-346.5 185,-346.5"/>
<text text-anchor="start" x="193" y="-414.3" font-family="Times,serif" font-size="14.00">0x2eec190:</text>
<text text-anchor="start" x="193" y="-399.3" font-family="Times,serif" font-size="14.00"> v1 = 0</text>
<text text-anchor="start" x="193" y="-384.3" font-family="Times,serif" font-size="14.00"> v2 = (v1 + PtrToIntCastExpr&lt;int32&gt;(a1))</text>
<text text-anchor="start" x="193" y="-369.3" font-family="Times,serif" font-size="14.00"> v3 = ExtCastExpr&lt;int32&gt;(*(IntToPtrCastExpr&lt;ptr&gt;(v2)))</text>
<text text-anchor="start" x="193" y="-354.3" font-family="Times,serif" font-size="14.00"> *(IntToPtrCastExpr&lt;ptr&gt;(v2)) = TruncCastExpr&lt;int8&gt;((v3 ^ rand()))</text>
</g>
<!-- Node0x2ee7f10&#45;&gt;Node0x2eb6730 -->
<g id="edge4" class="edge"><title>Node0x2ee7f10&#45;&gt;Node0x2eb6730</title>
<path fill="none" stroke="black" d="M228.635,-481.377C259.662,-468.341 302.906,-450.172 342.839,-433.394"/>
<polygon fill="black" stroke="black" points="344.24,-436.601 352.104,-429.501 341.529,-430.148 344.24,-436.601"/>
<text text-anchor="middle" x="338" y="-451.8" font-family="Times,serif" font-size="14.00">result &gt; 0</text>
</g>
<!-- Node0x2eedcf0 -->
<g id="node6" class="node"><title>Node0x2eedcf0</title>
<polygon fill="none" stroke="black" points="182.5,-23.5 182.5,-59.5 236.5,-59.5 236.5,-23.5 182.5,-23.5"/>
<text text-anchor="start" x="190.5" y="-37.8" font-family="Times,serif" font-size="14.00">exit:</text>
</g>
<!-- Node0x2ecc740&#45;&gt;Node0x2eedcf0 -->
<g id="edge5" class="edge"><title>Node0x2ecc740&#45;&gt;Node0x2eedcf0</title>
<path fill="none" stroke="black" d="M45.8564,-289.24C36.9696,-249.762 22.0647,-155.331 65.5,-97 90.4574,-63.484 138.632,-50.5784 172.361,-45.6096"/>
<polygon fill="black" stroke="black" points="172.861,-49.0741 182.324,-44.3084 171.955,-42.1331 172.861,-49.0741"/>
</g>
<!-- Node0x2ec8880 -->
<g id="node7" class="node"><title>Node0x2ec8880</title>
<polygon fill="none" stroke="black" points="372.5,-232.5 372.5,-270.5 578.5,-270.5 578.5,-232.5 372.5,-232.5"/>
<text text-anchor="start" x="380.5" y="-255.3" font-family="Times,serif" font-size="14.00">0x2eaff10:</text>
<text text-anchor="start" x="380.5" y="-240.3" font-family="Times,serif" font-size="14.00"> while ((v1 + 1) != result):</text>
</g>
<!-- Node0x2eb6730&#45;&gt;Node0x2ec8880 -->
<g id="edge6" class="edge"><title>Node0x2eb6730&#45;&gt;Node0x2ec8880</title>
<path fill="none" stroke="black" d="M456.674,-346.281C460.943,-325.013 466.059,-299.53 469.879,-280.499"/>
<polygon fill="black" stroke="black" points="473.318,-281.151 471.855,-270.658 466.455,-279.773 473.318,-281.151"/>
</g>
<!-- Node0x2ef1490 -->
<g id="node8" class="node"><title>Node0x2ef1490</title>
<polygon fill="none" stroke="black" points="75,-97.5 75,-180.5 602,-180.5 602,-97.5 75,-97.5"/>
<text text-anchor="start" x="83" y="-165.3" font-family="Times,serif" font-size="14.00">0x2ed44c0:</text>
<text text-anchor="start" x="83" y="-150.3" font-family="Times,serif" font-size="14.00"> v1 = (v1 + 1)</text>
<text text-anchor="start" x="83" y="-135.3" font-family="Times,serif" font-size="14.00"> v2 = (v1 + PtrToIntCastExpr&lt;int32&gt;(a1))</text>
<text text-anchor="start" x="83" y="-120.3" font-family="Times,serif" font-size="14.00"> v3 = ExtCastExpr&lt;int32&gt;(*(IntToPtrCastExpr&lt;ptr&gt;(v2)))</text>
<text text-anchor="start" x="83" y="-105.3" font-family="Times,serif" font-size="14.00"> *(IntToPtrCastExpr&lt;ptr&gt;(v2)) = TruncCastExpr&lt;int8&gt;((v3 ^ rand()))</text>
</g>
<!-- Node0x2ec8880&#45;&gt;Node0x2ef1490 -->
<g id="edge7" class="edge"><title>Node0x2ec8880&#45;&gt;Node0x2ef1490</title>
<path fill="none" stroke="black" d="M373.178,-232.47C356.131,-227.443 342.138,-221.31 336.5,-214 331.366,-207.344 328.986,-199.259 328.288,-190.909"/>
<polygon fill="black" stroke="black" points="331.786,-190.64 328.198,-180.671 324.786,-190.701 331.786,-190.64"/>
<text text-anchor="middle" x="400" y="-202.8" font-family="Times,serif" font-size="14.00">(v1 + 1) != result</text>
</g>
<!-- Node0x2ef1410 -->
<g id="node9" class="node"><title>Node0x2ef1410</title>
<polygon fill="none" stroke="black" points="620,-120 620,-158 733,-158 733,-120 620,-120"/>
<text text-anchor="start" x="628" y="-142.8" font-family="Times,serif" font-size="14.00">0x2eafcc0:</text>
<text text-anchor="start" x="628" y="-127.8" font-family="Times,serif" font-size="14.00"> return result</text>
</g>
<!-- Node0x2ec8880&#45;&gt;Node0x2ef1410 -->
<g id="edge8" class="edge"><title>Node0x2ec8880&#45;&gt;Node0x2ef1410</title>
<path fill="none" stroke="black" d="M513.215,-232.368C540.784,-218.839 578.895,-199.564 611.5,-181 620.989,-175.597 631.055,-169.458 640.358,-163.606"/>
<polygon fill="black" stroke="black" points="642.436,-166.433 649.001,-158.117 638.683,-160.524 642.436,-166.433"/>
<text text-anchor="middle" x="644" y="-202.8" font-family="Times,serif" font-size="14.00">(v1 + 1) == result</text>
</g>
<!-- Node0x2ef1490&#45;&gt;Node0x2ec8880 -->
<g id="edge9" class="edge"><title>Node0x2ef1490&#45;&gt;Node0x2ec8880</title>
<path fill="none" stroke="black" d="M444.464,-180.715C451.522,-186.115 457.997,-192.186 463.5,-199 468.772,-205.528 471.81,-213.96 473.536,-222.104"/>
<polygon fill="black" stroke="black" points="470.095,-222.758 475.09,-232.101 477.012,-221.682 470.095,-222.758"/>
</g>
<!-- Node0x2ef1410&#45;&gt;Node0x2eedcf0 -->
<g id="edge10" class="edge"><title>Node0x2ef1410&#45;&gt;Node0x2eedcf0</title>
<path fill="none" stroke="black" d="M653.098,-119.793C641.262,-111.511 626.296,-102.38 611.5,-97 483.432,-50.4337 319.316,-43.1248 246.799,-42.332"/>
<polygon fill="black" stroke="black" points="246.805,-38.8321 236.779,-42.2584 246.753,-45.8319 246.805,-38.8321"/>
</g>
</g>
</svg>
