<?xml version="1.0" encoding="UTF-8" standalone="no"?>
<!DOCTYPE svg PUBLIC "-//W3C//DTD SVG 1.1//EN"
 "http://www.w3.org/Graphics/SVG/1.1/DTD/svg11.dtd">
<!-- Generated by graphviz version 2.38.0 (20140413.2041)
 -->
<!-- Title: Call graph of the module. Pages: 1 -->
<svg width="485pt" height="287pt"
 viewBox="0.00 0.00 485.00 287.00" xmlns="http://www.w3.org/2000/svg" xmlns:xlink="http://www.w3.org/1999/xlink">
<g id="graph0" class="graph" transform="scale(1 1) rotate(0) translate(4 283)">
<title>Call graph of the module.</title>
<polygon fill="white" stroke="none" points="-4,4 -4,-283 481,-283 481,4 -4,4"/>
<text text-anchor="middle" x="238.5" y="-7.8" font-family="Times,serif" font-size="14.00">Call graph of the module.</text>
<!-- Node0x2e92b20 -->
<g id="node1" class="node"><title>Node0x2e92b20</title>
<polygon fill="none" stroke="#7f7f7f" points="0,-169.5 0,-205.5 54,-205.5 54,-169.5 0,-169.5"/>
<text text-anchor="middle" x="27" y="-183.8" font-family="Times,serif" font-size="14.00" fill="#7f7f7f">read</text>
</g>
<!-- Node0x2e930d0 -->
<g id="node2" class="node"><title>Node0x2e930d0</title>
<polygon fill="none" stroke="#7f7f7f" points="80.5,-96.5 80.5,-132.5 137.5,-132.5 137.5,-96.5 80.5,-96.5"/>
<text text-anchor="middle" x="109" y="-110.8" font-family="Times,serif" font-size="14.00" fill="#7f7f7f">printf</text>
</g>
<!-- Node0x2e94200 -->
<g id="node3" class="node"><title>Node0x2e94200</title>
<polygon fill="none" stroke="#7f7f7f" points="110.5,-169.5 110.5,-205.5 167.5,-205.5 167.5,-169.5 110.5,-169.5"/>
<text text-anchor="middle" x="139" y="-183.8" font-family="Times,serif" font-size="14.00" fill="#7f7f7f">fflush</text>
</g>
<!-- Node0x2ea3110 -->
<g id="node4" class="node"><title>Node0x2ea3110</title>
<polygon fill="none" stroke="#7f7f7f" points="275,-23.5 275,-59.5 329,-59.5 329,-23.5 275,-23.5"/>
<text text-anchor="middle" x="302" y="-37.8" font-family="Times,serif" font-size="14.00" fill="#7f7f7f">time</text>
</g>
<!-- Node0x2ea3770 -->
<g id="node5" class="node"><title>Node0x2ea3770</title>
<polygon fill="none" stroke="#7f7f7f" points="186,-169.5 186,-205.5 240,-205.5 240,-169.5 186,-169.5"/>
<text text-anchor="middle" x="213" y="-183.8" font-family="Times,serif" font-size="14.00" fill="#7f7f7f">puts</text>
</g>
<!-- Node0x2ea3ee0 -->
<g id="node6" class="node"><title>Node0x2ea3ee0</title>
<polygon fill="none" stroke="#7f7f7f" points="347.5,-23.5 347.5,-59.5 404.5,-59.5 404.5,-23.5 347.5,-23.5"/>
<text text-anchor="middle" x="376" y="-37.8" font-family="Times,serif" font-size="14.00" fill="#7f7f7f">srand</text>
</g>
<!-- Node0x2ea45d0 -->
<g id="node7" class="node"><title>Node0x2ea45d0</title>
<polygon fill="none" stroke="#7f7f7f" points="183.5,-96.5 183.5,-132.5 242.5,-132.5 242.5,-96.5 183.5,-96.5"/>
<text text-anchor="middle" x="213" y="-110.8" font-family="Times,serif" font-size="14.00" fill="#7f7f7f">strlen</text>
</g>
<!-- Node0x2ea4a50 -->
<g id="node8" class="node"><title>Node0x2ea4a50</title>
<polygon fill="none" stroke="#7f7f7f" points="423,-23.5 423,-59.5 477,-59.5 477,-23.5 423,-23.5"/>
<text text-anchor="middle" x="450" y="-37.8" font-family="Times,serif" font-size="14.00" fill="#7f7f7f">rand</text>
</g>
<!-- Node0x2ea51a0 -->
<g id="node9" class="node"><title>Node0x2ea51a0</title>
<polygon fill="none" stroke="#7f7f7f" points="260.5,-96.5 260.5,-132.5 315.5,-132.5 315.5,-96.5 260.5,-96.5"/>
<text text-anchor="middle" x="288" y="-110.8" font-family="Times,serif" font-size="14.00" fill="#7f7f7f">scanf</text>
</g>
<!-- Node0x2eb11a0 -->
<g id="node10" class="node"><title>Node0x2eb11a0</title>
<polygon fill="none" stroke="black" points="333.5,-96.5 333.5,-132.5 418.5,-132.5 418.5,-96.5 333.5,-96.5"/>
<text text-anchor="middle" x="376" y="-110.8" font-family="Times,serif" font-size="14.00">do_magic</text>
</g>
<!-- Node0x2eb11a0&#45;&gt;Node0x2ea3110 -->
<g id="edge1" class="edge"><title>Node0x2eb11a0&#45;&gt;Node0x2ea3110</title>
<path fill="none" stroke="black" d="M358.087,-96.3129C348.815,-87.4174 337.342,-76.4094 327.193,-66.6717"/>
<polygon fill="black" stroke="black" points="329.387,-63.9266 319.748,-59.5288 324.541,-68.9777 329.387,-63.9266"/>
</g>
<!-- Node0x2eb11a0&#45;&gt;Node0x2ea3ee0 -->
<g id="edge2" class="edge"><title>Node0x2eb11a0&#45;&gt;Node0x2ea3ee0</title>
<path fill="none" stroke="black" d="M376,-96.3129C376,-88.2895 376,-78.5475 376,-69.5691"/>
<polygon fill="black" stroke="black" points="379.5,-69.5288 376,-59.5288 372.5,-69.5289 379.5,-69.5288"/>
</g>
<!-- Node0x2eb11a0&#45;&gt;Node0x2ea4a50 -->
<g id="edge3" class="edge"><title>Node0x2eb11a0&#45;&gt;Node0x2ea4a50</title>
<path fill="none" stroke="black" d="M393.913,-96.3129C403.185,-87.4174 414.658,-76.4094 424.807,-66.6717"/>
<polygon fill="black" stroke="black" points="427.459,-68.9777 432.252,-59.5288 422.613,-63.9266 427.459,-68.9777"/>
</g>
<!-- Node0x2eb3e60 -->
<g id="node11" class="node"><title>Node0x2eb3e60</title>
<polygon fill="none" stroke="black" points="258,-169.5 258,-205.5 318,-205.5 318,-169.5 258,-169.5"/>
<text text-anchor="middle" x="288" y="-183.8" font-family="Times,serif" font-size="14.00">magic</text>
</g>
<!-- Node0x2eb3e60&#45;&gt;Node0x2e930d0 -->
<g id="edge4" class="edge"><title>Node0x2eb3e60&#45;&gt;Node0x2e930d0</title>
<path fill="none" stroke="black" d="M257.84,-172.763C254.863,-171.469 251.879,-170.195 249,-169 214.819,-154.814 175.404,-139.876 147.122,-129.402"/>
<polygon fill="black" stroke="black" points="148.203,-126.07 137.61,-125.892 145.779,-132.637 148.203,-126.07"/>
</g>
<!-- Node0x2eb3e60&#45;&gt;Node0x2ea45d0 -->
<g id="edge5" class="edge"><title>Node0x2eb3e60&#45;&gt;Node0x2ea45d0</title>
<path fill="none" stroke="black" d="M269.845,-169.313C260.448,-160.417 248.82,-149.409 238.533,-139.672"/>
<polygon fill="black" stroke="black" points="240.656,-136.862 230.988,-132.529 235.844,-141.945 240.656,-136.862"/>
</g>
<!-- Node0x2eb3e60&#45;&gt;Node0x2ea51a0 -->
<g id="edge6" class="edge"><title>Node0x2eb3e60&#45;&gt;Node0x2ea51a0</title>
<path fill="none" stroke="black" d="M288,-169.313C288,-161.289 288,-151.547 288,-142.569"/>
<polygon fill="black" stroke="black" points="291.5,-142.529 288,-132.529 284.5,-142.529 291.5,-142.529"/>
</g>
<!-- Node0x2eb3e60&#45;&gt;Node0x2eb11a0 -->
<g id="edge7" class="edge"><title>Node0x2eb3e60&#45;&gt;Node0x2eb11a0</title>
<path fill="none" stroke="black" d="M309.302,-169.313C320.652,-160.156 334.776,-148.76 347.101,-138.816"/>
<polygon fill="black" stroke="black" points="349.309,-141.532 354.894,-132.529 344.913,-136.084 349.309,-141.532"/>
</g>
<!-- Node0x2eb9b40 -->
<g id="node12" class="node"><title>Node0x2eb9b40</title>
<polygon fill="none" stroke="black" points="112,-242.5 112,-278.5 166,-278.5 166,-242.5 112,-242.5"/>
<text text-anchor="middle" x="139" y="-256.8" font-family="Times,serif" font-size="14.00">main</text>
</g>
<!-- Node0x2eb9b40&#45;&gt;Node0x2e92b20 -->
<g id="edge8" class="edge"><title>Node0x2eb9b40&#45;&gt;Node0x2e92b20</title>
<path fill="none" stroke="black" d="M112.173,-242.494C97.3211,-233.079 78.6705,-221.255 62.6109,-211.075"/>
<polygon fill="black" stroke="black" points="64.316,-208.012 53.9961,-205.614 60.568,-213.924 64.316,-208.012"/>
</g>
<!-- Node0x2eb9b40&#45;&gt;Node0x2e930d0 -->
<g id="edge9" class="edge"><title>Node0x2eb9b40&#45;&gt;Node0x2e930d0</title>
<path fill="none" stroke="black" d="M122.534,-242.231C114.343,-232.431 105.293,-219.459 101,-206 94.3975,-185.303 97.2154,-160.68 101.228,-142.346"/>
<polygon fill="black" stroke="black" points="104.632,-143.159 103.597,-132.615 97.831,-141.503 104.632,-143.159"/>
</g>
<!-- Node0x2eb9b40&#45;&gt;Node0x2e94200 -->
<g id="edge10" class="edge"><title>Node0x2eb9b40&#45;&gt;Node0x2e94200</title>
<path fill="none" stroke="black" d="M139,-242.313C139,-234.289 139,-224.547 139,-215.569"/>
<polygon fill="black" stroke="black" points="142.5,-215.529 139,-205.529 135.5,-215.529 142.5,-215.529"/>
</g>
<!-- Node0x2eb9b40&#45;&gt;Node0x2ea3770 -->
<g id="edge11" class="edge"><title>Node0x2eb9b40&#45;&gt;Node0x2ea3770</title>
<path fill="none" stroke="black" d="M156.913,-242.313C166.185,-233.417 177.658,-222.409 187.807,-212.672"/>
<polygon fill="black" stroke="black" points="190.459,-214.978 195.252,-205.529 185.613,-209.927 190.459,-214.978"/>
</g>
<!-- Node0x2eb9b40&#45;&gt;Node0x2eb3e60 -->
<g id="edge12" class="edge"><title>Node0x2eb9b40&#45;&gt;Node0x2eb3e60</title>
<path fill="none" stroke="black" d="M166.329,-246.478C189.375,-235.496 222.652,-219.639 248.581,-207.284"/>
<polygon fill="black" stroke="black" points="250.247,-210.367 257.769,-202.905 247.236,-204.047 250.247,-210.367"/>
</g>
</g>
</svg>
