<?xml version="1.0" encoding="UTF-8" standalone="no"?>
<!DOCTYPE svg PUBLIC "-//W3C//DTD SVG 1.1//EN"
 "http://www.w3.org/Graphics/SVG/1.1/DTD/svg11.dtd">
<!-- Generated by graphviz version 2.38.0 (20140413.2041)
 -->
<!-- Title: Control&#45;flow graph for function &#39;main(argc, **argv)&#39;. Pages: 1 -->
<svg width="1891pt" height="521pt"
 viewBox="0.00 0.00 1891.21 521.00" xmlns="http://www.w3.org/2000/svg" xmlns:xlink="http://www.w3.org/1999/xlink">
<g id="graph0" class="graph" transform="scale(1 1) rotate(0) translate(4 517)">
<title>Control&#45;flow graph for function &#39;main(argc, **argv)&#39;.</title>
<polygon fill="white" stroke="none" points="-4,4 -4,-517 1887.21,-517 1887.21,4 -4,4"/>
<text text-anchor="middle" x="941.604" y="-7.8" font-family="Times,serif" font-size="14.00">Control&#45;flow graph for function &#39;main(argc, **argv)&#39;.</text>
<!-- Node0x2eedc70 -->
<g id="node1" class="node"><title>Node0x2eedc70</title>
<polygon fill="none" stroke="black" points="890.708,-459.5 890.708,-512.5 949.708,-512.5 949.708,-459.5 890.708,-459.5"/>
<text text-anchor="start" x="898.708" y="-497.3" font-family="Times,serif" font-size="14.00">entry:</text>
<text text-anchor="start" x="898.708" y="-482.3" font-family="Times,serif" font-size="14.00"> argc</text>
<text text-anchor="start" x="898.708" y="-467.3" font-family="Times,serif" font-size="14.00"> argv</text>
</g>
<!-- Node0x2f0b0d0 -->
<g id="node2" class="node"><title>Node0x2f0b0d0</title>
<polygon fill="none" stroke="black" points="784.208,-323.5 784.208,-421.5 1056.21,-421.5 1056.21,-323.5 784.208,-323.5"/>
<text text-anchor="start" x="792.208" y="-406.3" font-family="Times,serif" font-size="14.00">0x2eb5c00:</text>
<text text-anchor="start" x="792.208" y="-391.3" font-family="Times,serif" font-size="14.00"> puts(&quot;Welcome to Magic system!&quot;)</text>
<text text-anchor="start" x="792.208" y="-376.3" font-family="Times,serif" font-size="14.00"> printf(&quot;Give me your name(a&#45;z): &quot;)</text>
<text text-anchor="start" x="792.208" y="-361.3" font-family="Times,serif" font-size="14.00"> fflush(NULL)</text>
<text text-anchor="start" x="792.208" y="-346.3" font-family="Times,serif" font-size="14.00"> v1 = 0</text>
<text text-anchor="start" x="792.208" y="-331.3" font-family="Times,serif" font-size="14.00"> buf</text>
</g>
<!-- Node0x2eedc70&#45;&gt;Node0x2f0b0d0 -->
<g id="edge1" class="edge"><title>Node0x2eedc70&#45;&gt;Node0x2f0b0d0</title>
<path fill="none" stroke="black" d="M920.208,-459.42C920.208,-451.117 920.208,-441.536 920.208,-431.851"/>
<polygon fill="black" stroke="black" points="923.708,-431.768 920.208,-421.768 916.708,-431.768 923.708,-431.768"/>
</g>
<!-- Node0x2f06de0 -->
<g id="node3" class="node"><title>Node0x2f06de0</title>
<polygon fill="none" stroke="black" points="430.708,-247.5 430.708,-285.5 1409.71,-285.5 1409.71,-247.5 430.708,-247.5"/>
<text text-anchor="start" x="438.708" y="-270.3" font-family="Times,serif" font-size="14.00">0x2eb94b0:</text>
<text text-anchor="start" x="438.708" y="-255.3" font-family="Times,serif" font-size="14.00"> while ((v1 &lt; 10) &amp; ((((read(0, buf, 1) == 0) or (buf &lt; IntToPtrCastExpr&lt;ptr&gt;(97))) or (buf &gt; IntToPtrCastExpr&lt;ptr&gt;(122))) ^ True)):</text>
</g>
<!-- Node0x2f0b0d0&#45;&gt;Node0x2f06de0 -->
<g id="edge2" class="edge"><title>Node0x2f0b0d0&#45;&gt;Node0x2f06de0</title>
<path fill="none" stroke="black" d="M920.208,-323.458C920.208,-313.952 920.208,-304.27 920.208,-295.69"/>
<polygon fill="black" stroke="black" points="923.708,-295.509 920.208,-285.509 916.708,-295.509 923.708,-295.509"/>
</g>
<!-- Node0x2f145a0 -->
<g id="node4" class="node"><title>Node0x2f145a0</title>
<polygon fill="none" stroke="black" points="278.708,-127.5 278.708,-165.5 395.708,-165.5 395.708,-127.5 278.708,-127.5"/>
<text text-anchor="start" x="286.708" y="-150.3" font-family="Times,serif" font-size="14.00">0x2eddaf0:</text>
<text text-anchor="start" x="286.708" y="-135.3" font-family="Times,serif" font-size="14.00"> v1 = (v1 + 1)</text>
</g>
<!-- Node0x2f06de0&#45;&gt;Node0x2f145a0 -->
<g id="edge3" class="edge"><title>Node0x2f06de0&#45;&gt;Node0x2f145a0</title>
<path fill="none" stroke="black" d="M430.581,-260.025C221.713,-255.195 21.6445,-246.106 5.20764,-229 -33.0856,-189.149 160.056,-164.146 268.158,-153.479"/>
<polygon fill="black" stroke="black" points="268.728,-156.941 278.343,-152.492 268.052,-149.973 268.728,-156.941"/>
<text text-anchor="middle" x="455.708" y="-217.8" font-family="Times,serif" font-size="14.00">(v1 &lt; 10) &amp; ((((read(0, buf, 1) == 0) or (buf &lt; IntToPtrCastExpr&lt;ptr&gt;(97))) or (buf &gt; IntToPtrCastExpr&lt;ptr&gt;(122))) ^ True)</text>
</g>
<!-- Node0x2ed1ad0 -->
<g id="node5" class="node"><title>Node0x2ed1ad0</title>
<polygon fill="none" stroke="black" points="746.708,-97.5 746.708,-195.5 1159.71,-195.5 1159.71,-97.5 746.708,-97.5"/>
<text text-anchor="start" x="754.708" y="-180.3" font-family="Times,serif" font-size="14.00">0x2eb8990:</text>
<text text-anchor="start" x="754.708" y="-165.3" font-family="Times,serif" font-size="14.00"> printf(&quot;Your name is %s.\n&quot;, buf)</text>
<text text-anchor="start" x="754.708" y="-150.3" font-family="Times,serif" font-size="14.00"> printf(&quot;Give me something that you want to MAGIC: &quot;)</text>
<text text-anchor="start" x="754.708" y="-135.3" font-family="Times,serif" font-size="14.00"> fflush(NULL)</text>
<text text-anchor="start" x="754.708" y="-120.3" font-family="Times,serif" font-size="14.00"> magic()</text>
<text text-anchor="start" x="754.708" y="-105.3" font-family="Times,serif" font-size="14.00"> return 0</text>
</g>
<!-- Node0x2f06de0&#45;&gt;Node0x2ed1ad0 -->
<g id="edge4" class="edge"><title>Node0x2f06de0&#45;&gt;Node0x2ed1ad0</title>
<path fill="none" stroke="black" d="M925.795,-247.336C927.562,-241.492 929.499,-234.982 931.208,-229 933.358,-221.469 935.57,-213.532 937.723,-205.685"/>
<polygon fill="black" stroke="black" points="941.155,-206.4 940.41,-195.831 934.402,-204.558 941.155,-206.4"/>
<text text-anchor="middle" x="1408.71" y="-217.8" font-family="Times,serif" font-size="14.00">not (((v1 &lt; 10) &amp; ((((read(0, buf, 1) == 0) or (buf &lt; IntToPtrCastExpr&lt;ptr&gt;(97))) or (buf &gt; IntToPtrCastExpr&lt;ptr&gt;(122))) ^ True)))</text>
</g>
<!-- Node0x2f145a0&#45;&gt;Node0x2f06de0 -->
<g id="edge5" class="edge"><title>Node0x2f145a0&#45;&gt;Node0x2f06de0</title>
<path fill="none" stroke="black" d="M395.954,-154.859C474.069,-164.587 616.453,-182.115 738.208,-196 775.513,-200.254 877.637,-189.638 906.208,-214 913.049,-219.833 916.715,-228.643 918.631,-237.335"/>
<polygon fill="black" stroke="black" points="915.183,-237.946 920.16,-247.3 922.102,-236.884 915.183,-237.946"/>
</g>
<!-- Node0x2eca7c0 -->
<g id="node6" class="node"><title>Node0x2eca7c0</title>
<polygon fill="none" stroke="black" points="926.208,-23.5 926.208,-59.5 980.208,-59.5 980.208,-23.5 926.208,-23.5"/>
<text text-anchor="start" x="934.208" y="-37.8" font-family="Times,serif" font-size="14.00">exit:</text>
</g>
<!-- Node0x2ed1ad0&#45;&gt;Node0x2eca7c0 -->
<g id="edge6" class="edge"><title>Node0x2ed1ad0&#45;&gt;Node0x2eca7c0</title>
<path fill="none" stroke="black" d="M953.208,-97.3173C953.208,-87.893 953.208,-78.32 953.208,-69.8676"/>
<polygon fill="black" stroke="black" points="956.708,-69.856 953.208,-59.8561 949.708,-69.8561 956.708,-69.856"/>
</g>
</g>
</svg>
